<mxfile host="app.diagrams.net" modified="2024-02-28T16:03:17.850Z" agent="Mozilla/5.0 (Windows NT 10.0; Win64; x64) AppleWebKit/537.36 (KHTML, like Gecko) Chrome/122.0.0.0 Safari/537.36" etag="JS988uOS0D-Ge_fmgCfo" version="23.1.6" type="google">
  <diagram name="PÃ¡gina-1" id="HnVToOezf8ok25fyZpL1">
    <mxGraphModel grid="0" page="0" gridSize="10" guides="1" tooltips="1" connect="1" arrows="1" fold="1" pageScale="1" pageWidth="827" pageHeight="1169" math="0" shadow="0">
      <root>
        <mxCell id="0" />
        <mxCell id="1" parent="0" />
        <mxCell id="rFf7mccn_UqxJYUph-on-9" style="edgeStyle=none;curved=1;rounded=0;orthogonalLoop=1;jettySize=auto;html=1;fontSize=12;startSize=8;endSize=8;" edge="1" parent="1" source="rFf7mccn_UqxJYUph-on-1" target="rFf7mccn_UqxJYUph-on-4">
          <mxGeometry relative="1" as="geometry" />
        </mxCell>
        <mxCell id="rFf7mccn_UqxJYUph-on-10" style="edgeStyle=none;curved=1;rounded=0;orthogonalLoop=1;jettySize=auto;html=1;entryX=1;entryY=0.5;entryDx=0;entryDy=0;fontSize=12;startSize=8;endSize=8;" edge="1" parent="1" source="rFf7mccn_UqxJYUph-on-1" target="rFf7mccn_UqxJYUph-on-5">
          <mxGeometry relative="1" as="geometry" />
        </mxCell>
        <mxCell id="rFf7mccn_UqxJYUph-on-11" style="edgeStyle=none;curved=1;rounded=0;orthogonalLoop=1;jettySize=auto;html=1;entryX=1;entryY=0.5;entryDx=0;entryDy=0;fontSize=12;startSize=8;endSize=8;" edge="1" parent="1" source="rFf7mccn_UqxJYUph-on-1" target="rFf7mccn_UqxJYUph-on-6">
          <mxGeometry relative="1" as="geometry" />
        </mxCell>
        <mxCell id="rFf7mccn_UqxJYUph-on-12" style="edgeStyle=none;curved=1;rounded=0;orthogonalLoop=1;jettySize=auto;html=1;entryX=1;entryY=0.5;entryDx=0;entryDy=0;fontSize=12;startSize=8;endSize=8;" edge="1" parent="1" source="rFf7mccn_UqxJYUph-on-1" target="rFf7mccn_UqxJYUph-on-3">
          <mxGeometry relative="1" as="geometry" />
        </mxCell>
        <mxCell id="rFf7mccn_UqxJYUph-on-13" style="edgeStyle=none;curved=1;rounded=0;orthogonalLoop=1;jettySize=auto;html=1;entryX=1;entryY=0.5;entryDx=0;entryDy=0;fontSize=12;startSize=8;endSize=8;" edge="1" parent="1" source="rFf7mccn_UqxJYUph-on-1" target="rFf7mccn_UqxJYUph-on-2">
          <mxGeometry relative="1" as="geometry" />
        </mxCell>
        <mxCell id="rFf7mccn_UqxJYUph-on-1" value="Clientes" style="rounded=0;whiteSpace=wrap;html=1;" vertex="1" parent="1">
          <mxGeometry x="46" y="201" width="120" height="43" as="geometry" />
        </mxCell>
        <mxCell id="rFf7mccn_UqxJYUph-on-2" value="&lt;u&gt;cliente_id&lt;/u&gt;" style="ellipse;whiteSpace=wrap;html=1;" vertex="1" parent="1">
          <mxGeometry x="-101" y="82" width="94" height="44" as="geometry" />
        </mxCell>
        <mxCell id="rFf7mccn_UqxJYUph-on-3" value="nombre" style="ellipse;whiteSpace=wrap;html=1;" vertex="1" parent="1">
          <mxGeometry x="-101" y="144" width="94" height="44" as="geometry" />
        </mxCell>
        <mxCell id="rFf7mccn_UqxJYUph-on-4" value="apellido" style="ellipse;whiteSpace=wrap;html=1;" vertex="1" parent="1">
          <mxGeometry x="-101" y="200" width="94" height="44" as="geometry" />
        </mxCell>
        <mxCell id="rFf7mccn_UqxJYUph-on-5" value="telefono" style="ellipse;whiteSpace=wrap;html=1;" vertex="1" parent="1">
          <mxGeometry x="-101" y="264" width="94" height="44" as="geometry" />
        </mxCell>
        <mxCell id="rFf7mccn_UqxJYUph-on-6" value="direccion" style="ellipse;whiteSpace=wrap;html=1;" vertex="1" parent="1">
          <mxGeometry x="-101" y="322" width="94" height="44" as="geometry" />
        </mxCell>
        <mxCell id="rFf7mccn_UqxJYUph-on-14" style="edgeStyle=none;curved=1;rounded=0;orthogonalLoop=1;jettySize=auto;html=1;fontSize=12;startSize=8;endSize=8;" edge="1" parent="1" source="rFf7mccn_UqxJYUph-on-19" target="rFf7mccn_UqxJYUph-on-22">
          <mxGeometry relative="1" as="geometry" />
        </mxCell>
        <mxCell id="rFf7mccn_UqxJYUph-on-15" style="edgeStyle=none;curved=1;rounded=0;orthogonalLoop=1;jettySize=auto;html=1;fontSize=12;startSize=8;endSize=8;" edge="1" parent="1" source="rFf7mccn_UqxJYUph-on-19" target="rFf7mccn_UqxJYUph-on-23">
          <mxGeometry relative="1" as="geometry" />
        </mxCell>
        <mxCell id="rFf7mccn_UqxJYUph-on-16" style="edgeStyle=none;curved=1;rounded=0;orthogonalLoop=1;jettySize=auto;html=1;fontSize=12;startSize=8;endSize=8;" edge="1" parent="1" source="rFf7mccn_UqxJYUph-on-19" target="rFf7mccn_UqxJYUph-on-24">
          <mxGeometry relative="1" as="geometry" />
        </mxCell>
        <mxCell id="rFf7mccn_UqxJYUph-on-17" style="edgeStyle=none;curved=1;rounded=0;orthogonalLoop=1;jettySize=auto;html=1;fontSize=12;startSize=8;endSize=8;" edge="1" parent="1" source="rFf7mccn_UqxJYUph-on-19" target="rFf7mccn_UqxJYUph-on-21">
          <mxGeometry relative="1" as="geometry" />
        </mxCell>
        <mxCell id="rFf7mccn_UqxJYUph-on-18" style="edgeStyle=none;curved=1;rounded=0;orthogonalLoop=1;jettySize=auto;html=1;fontSize=12;startSize=8;endSize=8;" edge="1" parent="1" source="rFf7mccn_UqxJYUph-on-19" target="rFf7mccn_UqxJYUph-on-20">
          <mxGeometry relative="1" as="geometry" />
        </mxCell>
        <mxCell id="rFf7mccn_UqxJYUph-on-19" value="Pedidos" style="rounded=0;whiteSpace=wrap;html=1;" vertex="1" parent="1">
          <mxGeometry x="586" y="199" width="120" height="43" as="geometry" />
        </mxCell>
        <mxCell id="rFf7mccn_UqxJYUph-on-20" value="&lt;u&gt;pedido_id&lt;/u&gt;" style="ellipse;whiteSpace=wrap;html=1;" vertex="1" parent="1">
          <mxGeometry x="751" y="43" width="94" height="44" as="geometry" />
        </mxCell>
        <mxCell id="rFf7mccn_UqxJYUph-on-21" value="fecha_pedido" style="ellipse;whiteSpace=wrap;html=1;" vertex="1" parent="1">
          <mxGeometry x="751" y="105" width="94" height="44" as="geometry" />
        </mxCell>
        <mxCell id="rFf7mccn_UqxJYUph-on-22" value="total" style="ellipse;whiteSpace=wrap;html=1;" vertex="1" parent="1">
          <mxGeometry x="751" y="161" width="94" height="44" as="geometry" />
        </mxCell>
        <mxCell id="rFf7mccn_UqxJYUph-on-23" value="estado" style="ellipse;whiteSpace=wrap;html=1;" vertex="1" parent="1">
          <mxGeometry x="751" y="225" width="94" height="44" as="geometry" />
        </mxCell>
        <mxCell id="rFf7mccn_UqxJYUph-on-24" value="empleado_id" style="ellipse;whiteSpace=wrap;html=1;" vertex="1" parent="1">
          <mxGeometry x="751" y="283" width="94" height="44" as="geometry" />
        </mxCell>
        <mxCell id="rFf7mccn_UqxJYUph-on-27" style="edgeStyle=none;curved=1;rounded=0;orthogonalLoop=1;jettySize=auto;html=1;fontSize=12;startSize=8;endSize=8;" edge="1" parent="1" source="rFf7mccn_UqxJYUph-on-32" target="rFf7mccn_UqxJYUph-on-35">
          <mxGeometry relative="1" as="geometry" />
        </mxCell>
        <mxCell id="rFf7mccn_UqxJYUph-on-28" style="edgeStyle=none;curved=1;rounded=0;orthogonalLoop=1;jettySize=auto;html=1;fontSize=12;startSize=8;endSize=8;" edge="1" parent="1" source="rFf7mccn_UqxJYUph-on-32" target="rFf7mccn_UqxJYUph-on-36">
          <mxGeometry relative="1" as="geometry" />
        </mxCell>
        <mxCell id="rFf7mccn_UqxJYUph-on-29" style="edgeStyle=none;curved=1;rounded=0;orthogonalLoop=1;jettySize=auto;html=1;fontSize=12;startSize=8;endSize=8;" edge="1" parent="1" source="rFf7mccn_UqxJYUph-on-32" target="rFf7mccn_UqxJYUph-on-37">
          <mxGeometry relative="1" as="geometry" />
        </mxCell>
        <mxCell id="rFf7mccn_UqxJYUph-on-30" style="edgeStyle=none;curved=1;rounded=0;orthogonalLoop=1;jettySize=auto;html=1;fontSize=12;startSize=8;endSize=8;" edge="1" parent="1" source="rFf7mccn_UqxJYUph-on-32" target="rFf7mccn_UqxJYUph-on-34">
          <mxGeometry relative="1" as="geometry" />
        </mxCell>
        <mxCell id="rFf7mccn_UqxJYUph-on-31" style="edgeStyle=none;curved=1;rounded=0;orthogonalLoop=1;jettySize=auto;html=1;fontSize=12;startSize=8;endSize=8;" edge="1" parent="1" source="rFf7mccn_UqxJYUph-on-32" target="rFf7mccn_UqxJYUph-on-33">
          <mxGeometry relative="1" as="geometry" />
        </mxCell>
        <mxCell id="rFf7mccn_UqxJYUph-on-39" style="edgeStyle=none;curved=1;rounded=0;orthogonalLoop=1;jettySize=auto;html=1;fontSize=12;startSize=8;endSize=8;" edge="1" parent="1" source="rFf7mccn_UqxJYUph-on-32" target="rFf7mccn_UqxJYUph-on-38">
          <mxGeometry relative="1" as="geometry" />
        </mxCell>
        <mxCell id="rFf7mccn_UqxJYUph-on-32" value="Empleados" style="rounded=0;whiteSpace=wrap;html=1;" vertex="1" parent="1">
          <mxGeometry x="249" y="366" width="120" height="43" as="geometry" />
        </mxCell>
        <mxCell id="rFf7mccn_UqxJYUph-on-33" value="&lt;u&gt;empleado_id&lt;/u&gt;" style="ellipse;whiteSpace=wrap;html=1;" vertex="1" parent="1">
          <mxGeometry x="93" y="330" width="94" height="44" as="geometry" />
        </mxCell>
        <mxCell id="rFf7mccn_UqxJYUph-on-34" value="nombre" style="ellipse;whiteSpace=wrap;html=1;" vertex="1" parent="1">
          <mxGeometry x="82" y="402.99999999999994" width="94" height="44" as="geometry" />
        </mxCell>
        <mxCell id="rFf7mccn_UqxJYUph-on-35" value="apellido" style="ellipse;whiteSpace=wrap;html=1;" vertex="1" parent="1">
          <mxGeometry x="151" y="477.99999999999994" width="94" height="44" as="geometry" />
        </mxCell>
        <mxCell id="rFf7mccn_UqxJYUph-on-36" value="cargo" style="ellipse;whiteSpace=wrap;html=1;" vertex="1" parent="1">
          <mxGeometry x="238" y="521.9999999999999" width="94" height="44" as="geometry" />
        </mxCell>
        <mxCell id="rFf7mccn_UqxJYUph-on-37" value="fecha_contratacion" style="ellipse;whiteSpace=wrap;html=1;" vertex="1" parent="1">
          <mxGeometry x="345" y="515" width="112" height="44" as="geometry" />
        </mxCell>
        <mxCell id="rFf7mccn_UqxJYUph-on-38" value="salario" style="ellipse;whiteSpace=wrap;html=1;" vertex="1" parent="1">
          <mxGeometry x="410" y="473" width="112" height="44" as="geometry" />
        </mxCell>
        <mxCell id="rFf7mccn_UqxJYUph-on-47" value="&lt;u&gt;detalle_id&lt;/u&gt;" style="ellipse;whiteSpace=wrap;html=1;" vertex="1" parent="1">
          <mxGeometry x="410" y="-238" width="94" height="44" as="geometry" />
        </mxCell>
        <mxCell id="rFf7mccn_UqxJYUph-on-48" value="pedido_id" style="ellipse;whiteSpace=wrap;html=1;" vertex="1" parent="1">
          <mxGeometry x="443" y="-289" width="94" height="44" as="geometry" />
        </mxCell>
        <mxCell id="rFf7mccn_UqxJYUph-on-49" value="cliente_id" style="ellipse;whiteSpace=wrap;html=1;" vertex="1" parent="1">
          <mxGeometry x="540" y="-238" width="94" height="44" as="geometry" />
        </mxCell>
        <mxCell id="rFf7mccn_UqxJYUph-on-50" value="producto_id" style="ellipse;whiteSpace=wrap;html=1;" vertex="1" parent="1">
          <mxGeometry x="599.5" y="-289" width="94" height="44" as="geometry" />
        </mxCell>
        <mxCell id="rFf7mccn_UqxJYUph-on-51" value="cantidad" style="ellipse;whiteSpace=wrap;html=1;" vertex="1" parent="1">
          <mxGeometry x="659" y="-238" width="98" height="44" as="geometry" />
        </mxCell>
        <mxCell id="rFf7mccn_UqxJYUph-on-52" value="precio_unitario" style="ellipse;whiteSpace=wrap;html=1;" vertex="1" parent="1">
          <mxGeometry x="751" y="-282" width="100" height="44" as="geometry" />
        </mxCell>
        <mxCell id="rFf7mccn_UqxJYUph-on-55" style="edgeStyle=none;curved=1;rounded=0;orthogonalLoop=1;jettySize=auto;html=1;fontSize=12;startSize=8;endSize=8;" edge="1" parent="1" source="rFf7mccn_UqxJYUph-on-53" target="rFf7mccn_UqxJYUph-on-47">
          <mxGeometry relative="1" as="geometry" />
        </mxCell>
        <mxCell id="rFf7mccn_UqxJYUph-on-56" style="edgeStyle=none;curved=1;rounded=0;orthogonalLoop=1;jettySize=auto;html=1;fontSize=12;startSize=8;endSize=8;" edge="1" parent="1" source="rFf7mccn_UqxJYUph-on-53" target="rFf7mccn_UqxJYUph-on-48">
          <mxGeometry relative="1" as="geometry" />
        </mxCell>
        <mxCell id="rFf7mccn_UqxJYUph-on-57" style="edgeStyle=none;curved=1;rounded=0;orthogonalLoop=1;jettySize=auto;html=1;fontSize=12;startSize=8;endSize=8;" edge="1" parent="1" source="rFf7mccn_UqxJYUph-on-53" target="rFf7mccn_UqxJYUph-on-49">
          <mxGeometry relative="1" as="geometry" />
        </mxCell>
        <mxCell id="rFf7mccn_UqxJYUph-on-58" style="edgeStyle=none;curved=1;rounded=0;orthogonalLoop=1;jettySize=auto;html=1;fontSize=12;startSize=8;endSize=8;" edge="1" parent="1" source="rFf7mccn_UqxJYUph-on-53" target="rFf7mccn_UqxJYUph-on-50">
          <mxGeometry relative="1" as="geometry" />
        </mxCell>
        <mxCell id="rFf7mccn_UqxJYUph-on-59" style="edgeStyle=none;curved=1;rounded=0;orthogonalLoop=1;jettySize=auto;html=1;fontSize=12;startSize=8;endSize=8;" edge="1" parent="1" source="rFf7mccn_UqxJYUph-on-53" target="rFf7mccn_UqxJYUph-on-51">
          <mxGeometry relative="1" as="geometry" />
        </mxCell>
        <mxCell id="rFf7mccn_UqxJYUph-on-60" style="edgeStyle=none;curved=1;rounded=0;orthogonalLoop=1;jettySize=auto;html=1;fontSize=12;startSize=8;endSize=8;" edge="1" parent="1" source="rFf7mccn_UqxJYUph-on-53" target="rFf7mccn_UqxJYUph-on-52">
          <mxGeometry relative="1" as="geometry" />
        </mxCell>
        <mxCell id="rFf7mccn_UqxJYUph-on-61" style="edgeStyle=none;curved=1;rounded=0;orthogonalLoop=1;jettySize=auto;html=1;fontSize=12;startSize=8;endSize=8;" edge="1" parent="1" source="rFf7mccn_UqxJYUph-on-53" target="rFf7mccn_UqxJYUph-on-54">
          <mxGeometry relative="1" as="geometry" />
        </mxCell>
        <mxCell id="rFf7mccn_UqxJYUph-on-53" value="Detalles_pedidos" style="rhombus;whiteSpace=wrap;html=1;" vertex="1" parent="1">
          <mxGeometry x="587" y="-89" width="119" height="80" as="geometry" />
        </mxCell>
        <mxCell id="rFf7mccn_UqxJYUph-on-54" value="subtotal" style="ellipse;whiteSpace=wrap;html=1;" vertex="1" parent="1">
          <mxGeometry x="814" y="-238" width="99" height="44" as="geometry" />
        </mxCell>
        <mxCell id="rFf7mccn_UqxJYUph-on-62" value="" style="endArrow=none;html=1;rounded=0;fontSize=12;startSize=8;endSize=8;" edge="1" parent="1" source="rFf7mccn_UqxJYUph-on-19" target="rFf7mccn_UqxJYUph-on-53">
          <mxGeometry width="50" height="50" relative="1" as="geometry">
            <mxPoint x="523" y="81" as="sourcePoint" />
            <mxPoint x="573" y="31" as="targetPoint" />
          </mxGeometry>
        </mxCell>
        <mxCell id="rFf7mccn_UqxJYUph-on-64" value="Hacem" style="rhombus;whiteSpace=wrap;html=1;" vertex="1" parent="1">
          <mxGeometry x="316" y="182.5" width="119" height="80" as="geometry" />
        </mxCell>
        <mxCell id="rFf7mccn_UqxJYUph-on-65" value="" style="endArrow=none;html=1;rounded=0;fontSize=12;startSize=8;endSize=8;" edge="1" parent="1" source="rFf7mccn_UqxJYUph-on-64" target="rFf7mccn_UqxJYUph-on-19">
          <mxGeometry width="50" height="50" relative="1" as="geometry">
            <mxPoint x="547" y="202" as="sourcePoint" />
            <mxPoint x="597" y="152" as="targetPoint" />
          </mxGeometry>
        </mxCell>
        <mxCell id="rFf7mccn_UqxJYUph-on-66" value="" style="endArrow=none;html=1;rounded=0;fontSize=12;startSize=8;endSize=8;" edge="1" parent="1" source="rFf7mccn_UqxJYUph-on-1" target="rFf7mccn_UqxJYUph-on-64">
          <mxGeometry width="50" height="50" relative="1" as="geometry">
            <mxPoint x="239" y="202" as="sourcePoint" />
            <mxPoint x="289" y="152" as="targetPoint" />
          </mxGeometry>
        </mxCell>
        <mxCell id="rFf7mccn_UqxJYUph-on-67" value="puede" style="rhombus;whiteSpace=wrap;html=1;" vertex="1" parent="1">
          <mxGeometry x="587" y="354" width="119" height="60" as="geometry" />
        </mxCell>
        <mxCell id="rFf7mccn_UqxJYUph-on-68" value="" style="endArrow=none;html=1;rounded=0;fontSize=12;startSize=8;endSize=8;exitX=0.5;exitY=0;exitDx=0;exitDy=0;" edge="1" parent="1" source="rFf7mccn_UqxJYUph-on-67" target="rFf7mccn_UqxJYUph-on-19">
          <mxGeometry width="50" height="50" relative="1" as="geometry">
            <mxPoint x="424" y="337" as="sourcePoint" />
            <mxPoint x="474" y="287" as="targetPoint" />
          </mxGeometry>
        </mxCell>
        <mxCell id="rFf7mccn_UqxJYUph-on-69" value="" style="endArrow=none;html=1;rounded=0;fontSize=12;startSize=8;endSize=8;" edge="1" parent="1" source="rFf7mccn_UqxJYUph-on-67" target="rFf7mccn_UqxJYUph-on-32">
          <mxGeometry width="50" height="50" relative="1" as="geometry">
            <mxPoint x="307.3698505286184" y="292.00437841779086" as="sourcePoint" />
            <mxPoint x="135" y="165.07" as="targetPoint" />
          </mxGeometry>
        </mxCell>
        <mxCell id="rFf7mccn_UqxJYUph-on-70" value="1" style="text;html=1;align=center;verticalAlign=middle;resizable=0;points=[];autosize=1;strokeColor=none;fillColor=none;fontSize=16;" vertex="1" parent="1">
          <mxGeometry x="164.5" y="223.5" width="27" height="31" as="geometry" />
        </mxCell>
        <mxCell id="rFf7mccn_UqxJYUph-on-71" value="n" style="text;html=1;align=center;verticalAlign=middle;resizable=0;points=[];autosize=1;strokeColor=none;fillColor=none;fontSize=16;" vertex="1" parent="1">
          <mxGeometry x="556" y="188" width="27" height="31" as="geometry" />
        </mxCell>
        <mxCell id="rFf7mccn_UqxJYUph-on-72" value="n" style="text;html=1;align=center;verticalAlign=middle;resizable=0;points=[];autosize=1;strokeColor=none;fillColor=none;fontSize=16;" vertex="1" parent="1">
          <mxGeometry x="615" y="242" width="27" height="31" as="geometry" />
        </mxCell>
        <mxCell id="rFf7mccn_UqxJYUph-on-73" value="n" style="text;html=1;align=center;verticalAlign=middle;resizable=0;points=[];autosize=1;strokeColor=none;fillColor=none;fontSize=16;" vertex="1" parent="1">
          <mxGeometry x="643.5" y="168.5" width="27" height="31" as="geometry" />
        </mxCell>
        <mxCell id="rFf7mccn_UqxJYUph-on-74" value="1" style="text;html=1;align=center;verticalAlign=middle;resizable=0;points=[];autosize=1;strokeColor=none;fillColor=none;fontSize=16;" vertex="1" parent="1">
          <mxGeometry x="369" y="387" width="27" height="31" as="geometry" />
        </mxCell>
        <mxCell id="rFf7mccn_UqxJYUph-on-75" style="edgeStyle=none;curved=1;rounded=0;orthogonalLoop=1;jettySize=auto;html=1;fontSize=12;startSize=8;endSize=8;" edge="1" parent="1" source="rFf7mccn_UqxJYUph-on-80" target="rFf7mccn_UqxJYUph-on-83">
          <mxGeometry relative="1" as="geometry" />
        </mxCell>
        <mxCell id="rFf7mccn_UqxJYUph-on-76" style="edgeStyle=none;curved=1;rounded=0;orthogonalLoop=1;jettySize=auto;html=1;entryX=1;entryY=0.5;entryDx=0;entryDy=0;fontSize=12;startSize=8;endSize=8;" edge="1" parent="1" source="rFf7mccn_UqxJYUph-on-80" target="rFf7mccn_UqxJYUph-on-84">
          <mxGeometry relative="1" as="geometry" />
        </mxCell>
        <mxCell id="rFf7mccn_UqxJYUph-on-77" style="edgeStyle=none;curved=1;rounded=0;orthogonalLoop=1;jettySize=auto;html=1;entryX=1;entryY=0.5;entryDx=0;entryDy=0;fontSize=12;startSize=8;endSize=8;" edge="1" parent="1" source="rFf7mccn_UqxJYUph-on-80" target="rFf7mccn_UqxJYUph-on-85">
          <mxGeometry relative="1" as="geometry" />
        </mxCell>
        <mxCell id="rFf7mccn_UqxJYUph-on-78" style="edgeStyle=none;curved=1;rounded=0;orthogonalLoop=1;jettySize=auto;html=1;entryX=1;entryY=0.5;entryDx=0;entryDy=0;fontSize=12;startSize=8;endSize=8;" edge="1" parent="1" source="rFf7mccn_UqxJYUph-on-80" target="rFf7mccn_UqxJYUph-on-82">
          <mxGeometry relative="1" as="geometry" />
        </mxCell>
        <mxCell id="rFf7mccn_UqxJYUph-on-79" style="edgeStyle=none;curved=1;rounded=0;orthogonalLoop=1;jettySize=auto;html=1;entryX=1;entryY=0.5;entryDx=0;entryDy=0;fontSize=12;startSize=8;endSize=8;" edge="1" parent="1" source="rFf7mccn_UqxJYUph-on-80" target="rFf7mccn_UqxJYUph-on-81">
          <mxGeometry relative="1" as="geometry" />
        </mxCell>
        <mxCell id="rFf7mccn_UqxJYUph-on-80" value="productos" style="rounded=0;whiteSpace=wrap;html=1;" vertex="1" parent="1">
          <mxGeometry x="240" y="-72" width="120" height="43" as="geometry" />
        </mxCell>
        <mxCell id="rFf7mccn_UqxJYUph-on-81" value="&lt;u&gt;producto_id&lt;/u&gt;" style="ellipse;whiteSpace=wrap;html=1;" vertex="1" parent="1">
          <mxGeometry x="93" y="-191" width="94" height="44" as="geometry" />
        </mxCell>
        <mxCell id="rFf7mccn_UqxJYUph-on-82" value="nombre" style="ellipse;whiteSpace=wrap;html=1;" vertex="1" parent="1">
          <mxGeometry x="93" y="-129" width="94" height="44" as="geometry" />
        </mxCell>
        <mxCell id="rFf7mccn_UqxJYUph-on-83" value="descripcion" style="ellipse;whiteSpace=wrap;html=1;" vertex="1" parent="1">
          <mxGeometry x="93" y="-73" width="94" height="44" as="geometry" />
        </mxCell>
        <mxCell id="rFf7mccn_UqxJYUph-on-84" value="precio" style="ellipse;whiteSpace=wrap;html=1;" vertex="1" parent="1">
          <mxGeometry x="93" y="-9" width="94" height="44" as="geometry" />
        </mxCell>
        <mxCell id="rFf7mccn_UqxJYUph-on-85" value="existencias" style="ellipse;whiteSpace=wrap;html=1;" vertex="1" parent="1">
          <mxGeometry x="93" y="49" width="94" height="44" as="geometry" />
        </mxCell>
        <mxCell id="rFf7mccn_UqxJYUph-on-87" value="" style="endArrow=none;html=1;rounded=0;fontSize=12;startSize=8;endSize=8;" edge="1" parent="1" source="rFf7mccn_UqxJYUph-on-80" target="rFf7mccn_UqxJYUph-on-53">
          <mxGeometry width="50" height="50" relative="1" as="geometry">
            <mxPoint x="338" y="-10" as="sourcePoint" />
            <mxPoint x="388" y="-60" as="targetPoint" />
          </mxGeometry>
        </mxCell>
        <mxCell id="rFf7mccn_UqxJYUph-on-88" value="n" style="text;html=1;align=center;verticalAlign=middle;resizable=0;points=[];autosize=1;strokeColor=none;fillColor=none;fontSize=16;" vertex="1" parent="1">
          <mxGeometry x="366" y="-77" width="27" height="31" as="geometry" />
        </mxCell>
      </root>
    </mxGraphModel>
  </diagram>
</mxfile>
